<?xml version="1.0" encoding="iso-8859-1"?>
<!-- Generator: Adobe Illustrator 19.0.0, SVG Export Plug-In . SVG Version: 6.00 Build 0)  -->
<svg version="1.1" id="Capa_1" xmlns="http://www.w3.org/2000/svg" xmlns:xlink="http://www.w3.org/1999/xlink" x="0px" y="0px"
	 viewBox="0 0 448 448" style="enable-background:new 0 0 448 448;" xml:space="preserve">
<g>
	<g>
		<path d="M303.872,257.088V80.192C303.872,35.904,268.16,0,223.84,0C179.568,0,144,34.496,144,78.784V256
			c-19.744,20.256-32.256,49.28-32.256,79.808C111.744,397.744,162,448,224,448c61.968,0,112.256-50.256,112.256-112.192
			C336.256,305.12,323.744,277.376,303.872,257.088z M223.872,416C179.68,416,144,380,144,335.808
			c0-26.096,12.528-49.216,31.872-63.808V80.192c0-26.528,21.6-48,48.128-48c26.496,0,48,21.472,48,48v192
			c19.312,14.592,32,37.536,32,63.632C304,380,268.064,416,223.872,416z"/>
	</g>
</g>
<g>
	<g>
		<path d="M239.872,290.752V160H208v130.752c-18.624,6.624-32,24.192-32,45.056c0,26.528,21.472,48,48,48c26.496,0,48-21.472,48-48
			C272,314.944,258.464,297.376,239.872,290.752z"/>
	</g>
</g>
<g>
</g>
<g>
</g>
<g>
</g>
<g>
</g>
<g>
</g>
<g>
</g>
<g>
</g>
<g>
</g>
<g>
</g>
<g>
</g>
<g>
</g>
<g>
</g>
<g>
</g>
<g>
</g>
<g>
</g>
</svg>
