<?xml version="1.0" encoding="iso-8859-1"?>
<!-- Generator: Adobe Illustrator 19.0.0, SVG Export Plug-In . SVG Version: 6.00 Build 0)  -->
<svg version="1.1" id="Capa_1" xmlns="http://www.w3.org/2000/svg" xmlns:xlink="http://www.w3.org/1999/xlink" x="0px" y="0px"
	 viewBox="0 0 478.598 478.598" style="enable-background:new 0 0 478.598 478.598;" xml:space="preserve">
<g>
	<g>
		<path d="M98.082,424.015l-22.624-22.624l-22.624,22.624c-12.448,12.447-12.448,32.815,0,45.247
			c12.447,12.448,32.815,12.448,45.248,0C110.529,456.815,110.529,436.447,98.082,424.015z"/>
	</g>
</g>
<g>
	<g>
		<path d="M386.716,27.652C363.772,9.279,335.335,0,306.898,0c-26.336,0-52.67,7.955-74.654,24.014
			c-38.755,28.314-56.207,72.249-52.574,114.743c1.256,14.701-3.22,29.295-13.652,39.727l-5.996,5.995
			c-6.248,6.249-6.248,16.38,0.001,22.628l-61.942,61.946l-45.248,90.512l22.624,22.624l90.512-45.264l61.935-61.935
			c3.124,3.124,7.218,4.686,11.314,4.686c4.095,0,8.19-1.562,11.314-4.686l6.646-6.646c8.938-8.938,21.054-13.273,33.583-13.273
			c1.642,0,3.29,0.074,4.941,0.222c3.842,0.346,7.699,0.518,11.553,0.518c32.708,0,65.397-12.43,90.358-37.392
			C450.997,165.034,447.365,76.219,386.716,27.652z M147.013,310.626l-45.252,22.63l22.621-45.249l58.27-58.27l22.625,22.626
			L147.013,310.626z M351.219,65.638c-4.454,4.454-11.186,5.817-16.918,3.202c-12.802-5.84-27.845-7.607-43.547-3.475
			c-21.502,5.658-38.899,23.041-44.578,44.538c-2.746,10.397-2.904,20.506-1.005,29.868c3.502,17.258-3.11,35.023-15.562,47.476
			l-22.097,22.096l-13.81-13.81c13.278-16.172,19.736-37.45,17.851-59.5c-2.886-33.755,11.906-65.97,39.567-86.178
			C267.111,38.174,286.397,32,306.897,32c13.877,0,27.434,2.974,39.728,8.518C356.5,44.972,358.878,57.978,351.219,65.638z"/>
	</g>
</g>
<g>
</g>
<g>
</g>
<g>
</g>
<g>
</g>
<g>
</g>
<g>
</g>
<g>
</g>
<g>
</g>
<g>
</g>
<g>
</g>
<g>
</g>
<g>
</g>
<g>
</g>
<g>
</g>
<g>
</g>
</svg>
