<?xml version="1.0" encoding="iso-8859-1"?>
<!-- Generator: Adobe Illustrator 19.0.0, SVG Export Plug-In . SVG Version: 6.00 Build 0)  -->
<svg version="1.1" id="Capa_1" xmlns="http://www.w3.org/2000/svg" xmlns:xlink="http://www.w3.org/1999/xlink" x="0px" y="0px"
	 viewBox="0 0 492.28 492.28" style="enable-background:new 0 0 492.28 492.28;" xml:space="preserve">
<g>
	<g>
		<path d="M182.139,324.28v16c0,8.836,7.164,16,16,16h96c8.836,0,16-7.164,16-16v-16C203.639,324.28,215.655,324.28,182.139,324.28z
			"/>
	</g>
</g>
<g>
	<g>
		<path d="M257.213,4.28c-6.336-5.707-15.813-5.707-22.149,0c-33.523,30.186-52.926,73.336-52.926,118.892
			c0,30.322,0,19.218,0,83.978c0,32,5.309,48.87,12.078,72.477c0.274,0.958,1.215,1.567,2.203,1.428
			c0.984-0.14,1.718-0.984,1.718-1.982c0-36.585,0-60.04,0-98.794c0-31.514,12.516-61.738,34.797-84.025
			c7.222-7.222,19.183-7.222,26.406,0c22.282,22.287,34.797,52.51,34.797,84.026c0,38.756,0,62.207,0,98.793
			c0,0.997,0.734,1.841,1.718,1.979c0.988,0.14,1.93-0.47,2.203-1.426c6.77-23.606,12.078-35.346,12.078-72.149v-84.306
			C310.139,77.616,290.736,34.466,257.213,4.28z"/>
	</g>
</g>
<g>
	<g>
		<path d="M145.436,233.172l20.883-14.619v-38.271c0-25.424-10.754-49.424-29.211-66.298c-6.054-5.532-15.519-5.532-21.57,0
			c-18.461,16.874-29.215,40.874-29.215,66.298v160.072c0,8.796,7.129,15.927,15.926,15.927h48.145
			c8.797,0,15.926-7.131,15.926-15.928V324.28c-10.027,0-22.855,0-40.18,0c-4.418,0-8-3.582-8-8v-30.678
			C118.139,264.718,128.327,245.148,145.436,233.172z"/>
	</g>
</g>
<g>
	<g>
		<path d="M376.924,113.983c-6.05-5.532-15.516-5.532-21.57,0c-18.457,16.874-29.215,40.874-29.215,66.298v38.399l20.703,14.491
			c17.11,11.977,27.297,31.547,27.297,52.43v30.678c0,4.418-3.582,8-8,8c-14.797,0-27.988,0-40,0v16.072
			c0.001,8.798,7.134,15.929,15.93,15.929h48.141c8.797,0,15.93-7.131,15.93-15.928V180.28
			C406.139,154.856,395.382,130.856,376.924,113.983z"/>
	</g>
</g>
<g>
	<g>
		<path d="M246.139,133.616c-20.562,0-32.562,15.89-33.062,16.562l12.844,9.531c0.078-0.102,7.828-10.094,20.218-10.094
			c13.187,0,19.703,9.359,19.938,9.687l13.406-8.718C279.046,149.898,268.218,133.616,246.139,133.616z"/>
	</g>
</g>
<g>
	<g>
		<path d="M290.667,397.333l-11.199-22.399c-0.813-1.626-2.477-2.654-4.297-2.654h-58.062c-1.82,0-3.484,1.027-4.297,2.654
			l-11.199,22.399c-1.594,3.192,0.726,6.947,4.293,6.947h80.469C289.94,404.28,292.26,400.525,290.667,397.333z"/>
	</g>
</g>
<g>
	<g>
		<path d="M358.139,372.28v72c0,4.418,3.582,8,8,8c4.418,0,8-3.582,8-8v-72H358.139z"/>
	</g>
</g>
<g>
	<g>
		<path d="M406.163,412.282l-0.023-40.002h-16v56.118c0,1.126,0.594,2.17,1.558,2.747c0.969,0.578,2.168,0.606,3.16,0.07
			c3.562-1.925,7.504-2.935,11.282-2.935c13.234,0,24,10.766,24,24c0,13.234-10.766,24-24,24c-6.406,0-13.133-3.061-17.649-7.833
			c-0.61-0.646-1.461-1.008-2.351-1.001c-0.886,0.007-1.734,0.381-2.336,1.036c-4.383,4.786-10.672,7.798-17.664,7.798
			c-7.734,0-15.867-4.632-19.961-10.735c-4.457-6.69-3.121-13.265-11.578-13.265h-0.32c-4.68,0-8.183,4.381-7.129,8.961
			c1.149,4.998,3.317,9.578,6.145,13.671c-2.363,0.801-4.774,1.368-7.156,1.368c-13.234,0-24-10.766-24-24c0-13.234,10.766-24,24-24
			c3.828,0,7.718,0.965,11.274,2.895c0.992,0.539,2.195,0.516,3.164-0.062c0.969-0.578,1.562-1.623,1.562-2.752
			c0-33.788,0-25.7,0-56.082h-16v40c-22.062,0-40,17.946-40,40c0,22.054,17.938,40,40,40c7.266,0,13.984-2.102,19.863-5.503
			c5.855,3.43,13.875,5.503,20.137,5.503c7.324,0,14.098-2.107,19.996-5.565c5.91,3.446,12.683,5.565,20.004,5.565
			c22.062,0,40-17.946,40-40C446.139,430.233,428.218,412.296,406.163,412.282z"/>
	</g>
</g>
<g>
	<g>
		<path d="M118.139,372.28v72c0,4.418,3.582,8,8,8c4.418,0,8-3.582,8-8v-72H118.139z"/>
	</g>
</g>
<g>
	<g>
		<path d="M166.163,412.282l-0.023-40.002h-16v56.118c0,1.126,0.594,2.17,1.558,2.747c0.969,0.578,2.168,0.606,3.16,0.07
			c3.562-1.925,7.504-2.935,11.282-2.935c13.234,0,24,10.766,24,24c0,13.234-10.766,24-24,24c-6.406,0-13.133-3.061-17.649-7.833
			c-0.61-0.646-1.461-1.008-2.351-1.001c-0.886,0.007-1.734,0.381-2.336,1.036c-4.383,4.786-10.672,7.798-17.664,7.798
			c-7.734,0-15.867-4.632-19.961-10.735c-4.457-6.69-3.121-13.265-11.578-13.265h-0.32c-4.68,0-8.183,4.381-7.129,8.961
			c1.149,4.998,3.317,9.578,6.145,13.671c-2.363,0.801-4.774,1.368-7.156,1.368c-13.234,0-24-10.766-24-24c0-13.234,10.766-24,24-24
			c3.828,0,7.718,0.965,11.274,2.895c0.992,0.539,2.195,0.516,3.164-0.062c0.969-0.578,1.562-1.623,1.562-2.752
			c0-33.788,0-25.7,0-56.082h-16v40c-22.062,0-40,17.946-40,40c0,22.054,17.938,40,40,40c7.266,0,13.984-2.102,19.863-5.503
			c5.855,3.43,13.875,5.503,20.137,5.503c7.324,0,14.098-2.107,19.996-5.565c5.91,3.446,12.683,5.565,20.004,5.565
			c22.062,0,40-17.946,40-40C206.139,430.233,188.218,412.296,166.163,412.282z"/>
	</g>
</g>
<g>
</g>
<g>
</g>
<g>
</g>
<g>
</g>
<g>
</g>
<g>
</g>
<g>
</g>
<g>
</g>
<g>
</g>
<g>
</g>
<g>
</g>
<g>
</g>
<g>
</g>
<g>
</g>
<g>
</g>
</svg>
