<?xml version="1.0" encoding="iso-8859-1"?>
<!-- Generator: Adobe Illustrator 19.0.0, SVG Export Plug-In . SVG Version: 6.00 Build 0)  -->
<svg version="1.1" id="Capa_1" xmlns="http://www.w3.org/2000/svg" xmlns:xlink="http://www.w3.org/1999/xlink" x="0px" y="0px"
	 viewBox="0 0 448.2 448.2" style="enable-background:new 0 0 448.2 448.2;" xml:space="preserve">
<g>
	<g>
		<path d="M233.131,2.969c-0.126-0.089-0.235-0.198-0.362-0.285c-5.142-3.579-12.195-3.579-17.338,0
			c-0.127,0.088-0.236,0.196-0.362,0.285C188.81,21.381,170.467,48.557,163.368,80h121.465
			C277.768,48.712,259.528,21.478,233.131,2.969z"/>
	</g>
</g>
<g>
	<g>
		<path d="M287.508,96H160.692c-0.387,4.053-0.592,8.159-0.592,12.315v163.933h128V108.315
			C288.1,104.159,287.895,100.052,287.508,96z M224.1,175.663c-17.552,0-31.832-14.279-31.832-31.831
			c0-17.552,14.28-31.832,31.832-31.832s31.831,14.28,31.831,31.832S241.652,175.663,224.1,175.663z"/>
	</g>
</g>
<g>
	<g>
		<path d="M342.727,230.875l-38.751-38.751l0.124,80.124h48v-18.745C352.1,245.015,348.729,236.876,342.727,230.875z"/>
	</g>
</g>
<g>
	<g>
		<path d="M105.473,230.874c-6.002,6.002-9.374,14.141-9.374,22.629v18.745h48l0.025-80.025L105.473,230.874z"/>
	</g>
</g>
<g>
	<g>
		<circle cx="224.1" cy="143.808" r="16"/>
	</g>
</g>
<g>
	<g>
		<path d="M240.1,336.248h-0.129c0,0,12.171,24.151-0.367,42.75c-9.377,13.909-15.424,21.138-15.504,21.25
			c-0.08-0.111-6.127-7.341-15.504-21.25c-12.538-18.598-0.367-42.75-0.367-42.75H208.1c-22.776,0-32,20.208-32,31.952
			c0,32.048,15.922,47.922,48,80c32.078-32.078,48-47.952,48-80C272.1,356.456,262.876,336.248,240.1,336.248z"/>
	</g>
</g>
<g>
	<g>
		<path d="M266.311,308.669l-10.186-20.374h-64.048l-10.187,20.374c-2.66,5.319,1.208,11.578,7.155,11.578h70.111
			C265.103,320.248,268.971,313.989,266.311,308.669z"/>
	</g>
</g>
<g>
</g>
<g>
</g>
<g>
</g>
<g>
</g>
<g>
</g>
<g>
</g>
<g>
</g>
<g>
</g>
<g>
</g>
<g>
</g>
<g>
</g>
<g>
</g>
<g>
</g>
<g>
</g>
<g>
</g>
</svg>
