<?xml version="1.0" encoding="iso-8859-1"?>
<!-- Generator: Adobe Illustrator 19.0.0, SVG Export Plug-In . SVG Version: 6.00 Build 0)  -->
<svg version="1.1" id="Capa_1" xmlns="http://www.w3.org/2000/svg" xmlns:xlink="http://www.w3.org/1999/xlink" x="0px" y="0px"
	 viewBox="0 0 448.001 448.001" style="enable-background:new 0 0 448.001 448.001;" xml:space="preserve">
<g>
	<g>
		<g>
			<polygon points="216,432.001 208,448.001 240,448.001 232,432.001 			"/>
			<polygon points="136,432.001 128,448.001 160,448.001 152,432.001 			"/>
			<polygon points="104,432.001 96,448.001 128,448.001 120,432.001 			"/>
			<polygon points="168,432.001 160,448.001 192,448.001 184,432.001 			"/>
			<polygon points="296,432.001 288,448.001 320,448.001 312,432.001 			"/>
			<polygon points="264,432.001 256,448.001 288,448.001 280,432.001 			"/>
			<polygon points="344,432.001 328,432.001 320,448.001 352,448.001 			"/>
			<path d="M256,176.001h-64v240h64V176.001z M232,368.001h-16v-16h16V368.001z M232,336.001h-16v-16h16V336.001z M232,304.001h-12
				c-2.211,0-4-1.791-4-4v-8c0-2.209,1.789-4,4-4h12V304.001z M216,272.001l8-16l8,16H216z M232,240.001h-16v-16h12
				c2.211,0,4,1.791,4,4V240.001z M224,208.001c-4.418,0-8-3.582-8-8c0-4.419,3.582-8,8-8s8,3.581,8,8
				C232,204.418,228.418,208.001,224,208.001z"/>
			<polygon points="256,160 272,128.666 272,128 176,128 176,128.666 192,160 			"/>
			<path d="M272,89.436c0-31.51-12.516-61.73-34.789-84.014c-7.226-7.229-19.195-7.229-26.422,0
				C188.516,27.706,176,57.926,176,89.435V112h96V89.436z"/>
			<path d="M272,224.001h64v-4.69c0-23.506-11.488-45.491-30.703-58.913c-0.758-0.53-1.828-0.53-2.586,0
				C283.488,173.82,272,195.804,272,219.31V224.001z"/>
			<path d="M176,219.31c0-23.506-11.488-45.491-30.703-58.913c-0.758-0.53-1.828-0.53-2.586,0
				C123.488,173.82,112,195.804,112,219.31v4.69h64V219.31z"/>
			<rect x="112" y="239.966" width="64" height="176"/>
			<rect x="272" y="239.966" width="64" height="176"/>
		</g>
	</g>
</g>
<g>
</g>
<g>
</g>
<g>
</g>
<g>
</g>
<g>
</g>
<g>
</g>
<g>
</g>
<g>
</g>
<g>
</g>
<g>
</g>
<g>
</g>
<g>
</g>
<g>
</g>
<g>
</g>
<g>
</g>
</svg>
