<?xml version="1.0" encoding="iso-8859-1"?>
<!-- Generator: Adobe Illustrator 19.0.0, SVG Export Plug-In . SVG Version: 6.00 Build 0)  -->
<svg version="1.1" id="Capa_1" xmlns="http://www.w3.org/2000/svg" xmlns:xlink="http://www.w3.org/1999/xlink" x="0px" y="0px"
	 viewBox="0 0 463.992 463.992" style="enable-background:new 0 0 463.992 463.992;" xml:space="preserve">
<g>
	<g>
		<path d="M422.598,166.168C407.616,77.266,330.803,0,231.995,0C133.189,0,56.378,77.262,41.394,166.164
			c-1.01,5.996,1.75,12.039,6.729,15.535l174.264,122.297h-22.39c-8.836,0-16,7.164-16,16v32c0,0-48,41.598-48,80
			c0,21.207,42.981,31.996,96,31.996s96-10.789,96-31.996c0-38.402-48-80-48-80v-32c0-8.836-7.162-16-16-16h-22.222l174.103-122.297
			C420.848,178.203,423.608,172.16,422.598,166.168z M209.538,19.828c12.226-12.914,33.334-12.953,45.565-0.047
			c27.879,29.426,43.066,75.57,49.631,124.215h-145.36C166.086,95.414,181.542,49.386,209.538,19.828z M247.995,383.996
			c0,8.836-7.164,16-16,16s-16-7.164-16-16c0-8.84,7.164-16,16-16S247.995,375.156,247.995,383.996z M243.995,271.046v-79.05h-24
			v79.05l-138.18-95.05h300.359L243.995,271.046z"/>
	</g>
</g>
<g>
</g>
<g>
</g>
<g>
</g>
<g>
</g>
<g>
</g>
<g>
</g>
<g>
</g>
<g>
</g>
<g>
</g>
<g>
</g>
<g>
</g>
<g>
</g>
<g>
</g>
<g>
</g>
<g>
</g>
</svg>
