<?xml version="1.0" encoding="iso-8859-1"?>
<!-- Generator: Adobe Illustrator 19.0.0, SVG Export Plug-In . SVG Version: 6.00 Build 0)  -->
<svg version="1.1" id="Capa_1" xmlns="http://www.w3.org/2000/svg" xmlns:xlink="http://www.w3.org/1999/xlink" x="0px" y="0px"
	 viewBox="0 0 448.523 448.523" style="enable-background:new 0 0 448.523 448.523;" xml:space="preserve">
<g>
	<g>
		<path d="M155.562,333.613c-4.378-4.19-8.764-8.381-12.591-12.016c-14.558-13.734-28.774-27.46-40-41.596
			c21.251,0,40.146,0,58.722,0c10.675-11.66,18.227-22.195,22.952-32c-29.531,0-73.598,0-100.669,0
			c-2.978-7.76-4.917-15.625-4.917-23.68c0-8.418,2.009-16.49,5.044-24.32c27.016,0,55.581,0,77.839,0
			c-0.451-0.425-0.959-0.779-1.398-1.218c-8.588-8.587-14.278-19.236-16.944-30.782c-12.756,0-26,0-40.163,0
			c12.181-15,26.877-28.661,39.424-40.822l22.966-22.331C203.452,67.67,222.887,44.105,222.887,16c0-8.836-7.156-16-16-16
			s-16,7.164-16,16c0,5.244-1.689,10.668-4.926,16.687c-1.132-0.254-2.198-0.687-3.407-0.687h-83.52
			c-2.793-5.588-4.146-10.694-4.146-16c0-8.836-7.156-16-16-16s-16,7.164-16,16c0,28.634,16.512,49.071,57.014,88.873
			c-28.461,27.575-72.842,66.61-72.842,119.439c0,45.984,36.373,85.383,72.538,119.73c-45.121,44.238-56.71,59.319-56.71,88.482
			c0,8.836,7.156,16,16,16s16-7.164,16-16c0-6.048,1.048-11.236,4.17-17.214c1.136,0.256,2.206,0.69,3.42,0.69h83.766
			c2.786,5.655,4.643,11.186,4.643,16.523c0,8.836,7.156,16,16,16s16-7.164,16-16C222.887,397.849,189.92,365.814,155.562,333.613z
			 M161.103,64.001c-5.338,5.62-11.26,11.654-18.221,18.528c-7.143-7.017-13.07-13-18.397-18.528H161.103z M124.904,384.001
			c4.77-4.877,11.495-11.61,18.031-18.039c6.548,6.168,12.84,12.209,18.545,18.039H124.904z"/>
	</g>
</g>
<g>
	<g>
		<path d="M367.524,247.372c-9.372-9.373-21.656-14.059-33.941-14.059s-24.568,4.686-33.942,14.059
			c-1.984,1.984-3.643,4.159-5.208,6.377c-10.517-3.578-21.014-5.35-31.638-5.354c-0.518,0-0.992,0.131-1.507,0.14l39.31-39.309
			c10.052,5.915,21.358,8.889,32.651,8.889c16.269,0,32.512-6.17,44.944-18.602c11.612-11.612,20.23-27.614,20.209-42.837V88.794
			h-67.883c0,0-0.04,0-0.059,0c-15.206-0.001-31.178,8.611-42.776,20.209c-21.062,21.062-24.152,53.063-9.714,77.596l-39.411,39.412
			c0.01-0.578,0.158-1.112,0.158-1.694c-0.005-10.623-1.776-21.12-5.354-31.637c2.218-1.565,4.393-3.225,6.377-5.209
			c18.745-18.745,18.745-49.137,0-67.882l-33.942-33.942l-33.941,33.942c-18.746,18.745-18.746,49.137,0,67.882
			c8.491,8.492,19.388,12.932,30.494,13.73c2.874,7.846,4.36,15.521,4.363,23.122c0.004,25.53-16.273,48.386-34.886,68.338
			c-6.289,5.902-12.062,11.802-17.591,17.505c7.39,7.198,16.64,16.278,22.948,22.473c4.873-4.738,9.867-9.637,14.913-14.913
			l3.178-3.177c19.758-18.294,42.324-34.15,67.504-34.15c0.005,0,0.005,0,0.005,0c7.606,0.003,15.282,1.49,23.128,4.363
			c0.798,11.106,5.238,22.003,13.729,30.495c9.373,9.372,21.658,14.058,33.942,14.058s24.568-4.686,33.941-14.058l33.942-33.942
			L367.524,247.372z"/>
	</g>
</g>
<g>
</g>
<g>
</g>
<g>
</g>
<g>
</g>
<g>
</g>
<g>
</g>
<g>
</g>
<g>
</g>
<g>
</g>
<g>
</g>
<g>
</g>
<g>
</g>
<g>
</g>
<g>
</g>
<g>
</g>
</svg>
