<?xml version="1.0" encoding="iso-8859-1"?>
<!-- Generator: Adobe Illustrator 19.0.0, SVG Export Plug-In . SVG Version: 6.00 Build 0)  -->
<svg version="1.1" id="Capa_1" xmlns="http://www.w3.org/2000/svg" xmlns:xlink="http://www.w3.org/1999/xlink" x="0px" y="0px"
	 viewBox="0 0 416 416" style="enable-background:new 0 0 416 416;" xml:space="preserve">
<g>
	<g>
		<path d="M416,64c0-35.346-28.654-64-64-64c-19.773,0-37.229,9.158-48.969,23.247C274.537,8.5,242.302,0,208,0
			C93.125,0,0,93.125,0,208s93.125,208,208,208s208-93.125,208-208c0-34.302-8.5-66.537-23.247-95.031
			C406.842,101.229,416,83.773,416,64z M381.383,238.384c-12.551,73.023-71.564,131.734-144.744,143.341
			C117.301,400.653,15.346,298.699,34.275,179.361c11.607-73.18,70.318-132.193,143.341-144.746
			c40.61-6.981,79.01,0.408,111.582,17.481c-0.729,3.866-1.199,7.826-1.199,11.904c0,11.849,3.441,22.805,9.053,32.322l-10.65,10.65
			C264.728,90.128,237.574,80,207.999,80c-36.759,0-69.714,15.628-92.994,40.489c-6.515,6.958-5.068,18.199,2.715,23.701
			c6.485,4.584,15.265,3.609,20.726-2.158C155.934,123.567,180.617,112,207.998,112c20.7,0,39.84,6.652,55.536,17.839l-34.96,34.96
			c-9.774-4.668-21.174-6.462-33.467-2.97c-17.686,5.026-31.64,20.216-34.495,38.38c-5.124,32.592,22.585,60.301,55.177,55.177
			c18.163-2.855,33.354-16.81,38.38-34.495c3.493-12.292,1.699-23.692-2.97-33.467l34.96-34.96
			c11.67,16.376,18.406,36.499,17.802,58.233c-1.344,48.294-40.544,89.482-88.726,93.036c-47.323,3.491-88.04-27.585-99.761-70.505
			c7.567-5.853,12.525-14.921,12.525-25.227c0-19.833-18.041-35.45-38.606-31.338c-12.053,2.41-22.07,12.259-24.638,24.279
			c-3.454,16.166,5.31,30.846,18.794,36.546c14.129,59.818,70.087,103.476,135.374,98.058
			c61.391-5.094,111.643-55.522,116.642-116.921c2.742-33.679-7.696-64.782-26.539-89.027l10.65-10.65
			c9.518,5.612,20.474,9.053,32.322,9.053c4.078,0,8.038-0.47,11.904-1.199C380.975,159.374,388.364,197.774,381.383,238.384z
			 M224,208c0,8.822-7.178,16-16,16s-16-7.178-16-16s7.178-16,16-16C216.822,192,224,199.178,224,208z M352,96
			c-17.645,0-32-14.355-32-32c0-17.646,14.355-32,32-32c17.646,0,32,14.354,32,32C384,81.645,369.645,96,352,96z"/>
	</g>
</g>
<g>
	<g>
		<circle cx="352.001" cy="64" r="16"/>
	</g>
</g>
<g>
</g>
<g>
</g>
<g>
</g>
<g>
</g>
<g>
</g>
<g>
</g>
<g>
</g>
<g>
</g>
<g>
</g>
<g>
</g>
<g>
</g>
<g>
</g>
<g>
</g>
<g>
</g>
<g>
</g>
</svg>
