<?xml version="1.0" encoding="iso-8859-1"?>
<!-- Generator: Adobe Illustrator 19.0.0, SVG Export Plug-In . SVG Version: 6.00 Build 0)  -->
<svg version="1.1" id="Capa_1" xmlns="http://www.w3.org/2000/svg" xmlns:xlink="http://www.w3.org/1999/xlink" x="0px" y="0px"
	 viewBox="0 0 448 448" style="enable-background:new 0 0 448 448;" xml:space="preserve">
<g>
	<g>
		<polygon points="325.824,0 303.197,22.626 314.51,33.942 303.197,45.254 348.45,90.508 359.765,79.196 371.078,90.508 
			393.706,67.883 		"/>
	</g>
</g>
<g>
	<g>
		<path d="M349.849,218.977c-3.082,6.711-7.182,13.082-12.711,18.61c-11.438,11.438-26.145,17.379-41.11,18.348
			c13.559,36.914,2.536,74.855-22.087,99.477c-3.851,3.851-8.003,7.234-12.301,10.328L88.236,192.332l-11.314,11.313
			l118.882,118.883c-8.007,1.203-15.724,4.762-21.888,10.926l-6.224,6.222l-22.89-22.89l11.315-11.317L88.236,237.59l-33.942,33.938
			l67.882,67.883l11.314-11.313l22.89,22.89L123.37,384h-21.076c-17.673,0-31.999,14.328-31.999,32l0.001,32h256l-0.001-32
			c0-0.488-0.123-0.946-0.145-1.43l0.114,0.027c-0.548-12.457,3.056-24.481,10.267-34.656
			C368.473,334.883,376.522,274.094,349.849,218.977z M201.373,377.469c-8.836,0-16-7.164-16-16s7.164-16,16-16
			c8.837,0,16,7.164,16,16S210.21,377.469,201.373,377.469z"/>
	</g>
</g>
<g>
	<g>
		<path d="M348.452,113.137L280.57,45.254c-6.249-6.25-16.379-6.25-22.627,0c-25.868,25.867-96.21,96.211-120.276,120.278
			c-2.673,2.672-4.174,6.297-4.174,10.078v33.446c-0.001,3.782,1.502,7.406,4.174,10.078l36.904,36.906
			c2.673,2.672,6.3,4.176,10.079,4.176h33.447c3.779,0,7.406-1.5,10.078-4.176c11.022-11.019,1.072-1.07,29.766-29.766
			c18.745,18.746,49.138,18.746,67.883,0s18.745-49.137,0-67.883l22.562-22.562C354.634,129.578,354.7,119.382,348.452,113.137z
			 M178.746,192.333l-11.314-11.313L269.255,79.196l11.314,11.313L178.746,192.333z M291.882,208.332
			c-8.837,0-15.999-7.164-15.999-16s7.162-16,16-16c8.836,0,16,7.164,16,16S300.72,208.332,291.882,208.332z"/>
	</g>
</g>
<g>
</g>
<g>
</g>
<g>
</g>
<g>
</g>
<g>
</g>
<g>
</g>
<g>
</g>
<g>
</g>
<g>
</g>
<g>
</g>
<g>
</g>
<g>
</g>
<g>
</g>
<g>
</g>
<g>
</g>
</svg>
