<?xml version="1.0" encoding="iso-8859-1"?>
<!-- Generator: Adobe Illustrator 19.0.0, SVG Export Plug-In . SVG Version: 6.00 Build 0)  -->
<svg version="1.1" id="Capa_1" xmlns="http://www.w3.org/2000/svg" xmlns:xlink="http://www.w3.org/1999/xlink" x="0px" y="0px"
	 viewBox="0 0 480 480" style="enable-background:new 0 0 480 480;" xml:space="preserve">
<g>
	<g>
		<path d="M432,112L432,112V80h-96v32h-16v2.025c12.61,3.257,23.65,10.345,32,19.845V128h64v57.463
			c5.795,6.047,11.178,12.392,16,19.124V128h16v104.178c8.081,17.419,13.317,36.177,15.138,55.822H464V128h16v-16H432z M416,112h-64
			V96h64V112z"/>
	</g>
</g>
<g>
	<g>
		<path d="M144,112V80H48v32H0v16h16v208H0v16h143.986v-16H32V128h16v128c0,26.51,21.49,48,48,48c26.51,0,48-21.49,48-48V128h16v-16
			H144z M128,256c0,17.645-14.354,32-32,32c-17.645,0-32-14.355-32-32V128h64V256z M128,112H64V96h64V112z"/>
	</g>
</g>
<g>
	<g>
		<path d="M367.319,293.405c-0.535-4.167-1.544-8.206-2.766-12.172c-7.226-5.584-11.982-14.117-12.412-23.832
			c-4.542-5.883-9.902-11.258-16.142-15.866V256c0,20.814,13.325,38.36,31.847,45.014
			C367.768,298.479,367.644,295.943,367.319,293.405z"/>
	</g>
</g>
<g>
	<g>
		<path d="M351.999,175.999c0-26.51-21.49-47.999-47.999-47.999l-0.002-31.908c0-8.837-7.162-16.092-15.999-16.093H272V48h16
			l-0.001-32H192v31.999L208,48v32h-16c-8.838-0.001-16,7.163-16,15.999c0,36.584,0,136.062,0,170.097
			c0,3.779,1.502,7.406,4.176,10.078l23.649,23.649c2.673,2.674,6.299,4.175,10.078,4.176h52.191c3.782,0,7.407-1.503,10.079-4.176
			l23.651-23.65c2.672-2.672,4.176-6.298,4.175-10.077c0-15.587,0-1.517-0.001-42.096C330.509,224,352,202.509,351.999,175.999z
			 M224,256h-16V111.999L224,112V256z M315.312,187.312c-6.248,6.249-16.379,6.248-22.626,0c-6.249-6.249-6.25-16.378,0-22.628
			c6.247-6.248,16.378-6.248,22.626,0C321.56,170.932,321.562,181.064,315.312,187.312z"/>
	</g>
</g>
<g>
	<g>
		<path d="M444.545,336c2.865-13.857,4.102-28.298,3.064-43.229c-3.787-54.46-35.721-100.282-80.557-126.138
			c0.458,3.082,0.947,6.159,0.947,9.367c0,20.661-10.003,38.868-25.239,50.576c21.406,14.894,36.935,37.572,40.428,64.793
			c2.027,15.804-0.012,30.89-4.916,44.631h-57.788l15.999,16h34.419c-6.863,11.778-16.04,22.049-27.075,29.972l-38.702-38.703
			c-4.74-4.74-10.914-7.131-17.125-7.264L160,336v32h85.075l-32,32H176c-17.673,0-32,14.326-32,32v32h272V447.66
			c0-27.561,7.254-54.313,18.423-79.508c2.319-5.233,4.289-10.646,6.045-16.151H480v-16H444.545z M288,400c-8.837,0-16-7.164-16-16
			c0-8.837,7.163-16,16-16s16,7.163,16,16C304,392.836,296.837,400,288,400z"/>
	</g>
</g>
<g>
</g>
<g>
</g>
<g>
</g>
<g>
</g>
<g>
</g>
<g>
</g>
<g>
</g>
<g>
</g>
<g>
</g>
<g>
</g>
<g>
</g>
<g>
</g>
<g>
</g>
<g>
</g>
<g>
</g>
</svg>
