<?xml version="1.0" encoding="iso-8859-1"?>
<!-- Generator: Adobe Illustrator 19.0.0, SVG Export Plug-In . SVG Version: 6.00 Build 0)  -->
<svg version="1.1" id="Capa_1" xmlns="http://www.w3.org/2000/svg" xmlns:xlink="http://www.w3.org/1999/xlink" x="0px" y="0px"
	 viewBox="0 0 449.235 449.235" style="enable-background:new 0 0 449.235 449.235;" xml:space="preserve">
<g>
	<g>
		<path d="M283.071,39.341L214.921,0l-64,36.944L86.921,0l-72,41.562v83.125l64,36.944v73.892l19.398,11.196l11.709-11.71
			l-15.107-8.722v-64.656l28-16.164l28-16.163l26.747,15.439l11.71-11.71l-2.457-1.418l-28-16.164V50.797l56-32.328l56,32.328v0.694
			L283.071,39.341z M142.921,115.451l-28,16.164L86.92,147.779l-55.999-32.328V50.795l56-32.328l56,32.328V115.451z"/>
	</g>
</g>
<g>
	<g>
		<polygon points="366.433,1.233 343.806,23.859 355.119,35.174 343.806,46.487 389.06,91.742 400.374,80.429 411.688,91.742 
			434.314,69.114 		"/>
	</g>
</g>
<g>
	<g>
		<path d="M390.457,220.21c-3.082,6.711-7.18,13.08-12.71,18.61c-11.438,11.438-26.145,17.379-41.11,18.348
			c13.559,36.914,2.536,74.853-22.087,99.475c-3.851,3.851-8.003,7.233-12.301,10.326L128.845,193.566l-11.314,11.314
			l118.883,118.883c-8.007,1.2-15.724,4.758-21.888,10.923l-6.224,6.224l-22.89-22.89l11.315-11.315l-67.882-67.882l-33.942,33.941
			l67.882,67.883l11.314-11.314l22.89,22.89l-33.012,33.012h-21.076c-17.673,0-31.999,14.327-31.999,32l0.001,32h256l-0.001-32
			c0-0.49-0.123-0.946-0.145-1.43l0.114,0.03c-0.548-12.46,3.056-24.483,10.267-34.658
			C409.081,336.117,417.13,275.33,390.457,220.21z M241.982,378.702c-8.836,0-16-7.163-16-16c0-8.836,7.164-16,16-16
			c8.837,0,16,7.164,16,16C257.982,371.539,250.818,378.702,241.982,378.702z"/>
	</g>
</g>
<g>
	<g>
		<path d="M389.061,114.37l-67.882-67.881c-6.249-6.25-16.379-6.249-22.627-0.001c-25.87,25.867-96.211,96.208-120.278,120.274
			c-2.673,2.673-4.174,6.299-4.174,10.08v33.446c-0.001,3.78,1.502,7.406,4.174,10.079l36.906,36.904
			c2.673,2.674,6.3,4.175,10.079,4.175h33.447c3.779,0,7.406-1.5,10.078-4.174c11.022-11.022,1.072-1.072,29.766-29.766
			c18.745,18.745,49.138,18.746,67.883,0c18.745-18.745,18.745-49.137,0-67.882l22.562-22.563
			C395.243,130.814,395.309,120.618,389.061,114.37z M219.354,193.566l-11.314-11.314L309.865,80.428l11.314,11.314L219.354,193.566
			z M332.491,209.565c-8.837,0-15.999-7.164-15.999-16c0-8.837,7.162-16,16-16c8.836,0,16,7.163,16,15.999
			C348.492,202.4,341.329,209.565,332.491,209.565z"/>
	</g>
</g>
<g>
</g>
<g>
</g>
<g>
</g>
<g>
</g>
<g>
</g>
<g>
</g>
<g>
</g>
<g>
</g>
<g>
</g>
<g>
</g>
<g>
</g>
<g>
</g>
<g>
</g>
<g>
</g>
<g>
</g>
</svg>
