<?xml version="1.0" encoding="iso-8859-1"?>
<!-- Generator: Adobe Illustrator 19.0.0, SVG Export Plug-In . SVG Version: 6.00 Build 0)  -->
<svg version="1.1" id="Capa_1" xmlns="http://www.w3.org/2000/svg" xmlns:xlink="http://www.w3.org/1999/xlink" x="0px" y="0px"
	 viewBox="0 0 448.525 448.525" style="enable-background:new 0 0 448.525 448.525;" xml:space="preserve">
<g>
	<g>
		<path d="M427.647,367.169l-78.534-78.993c10.978-18.882,17.371-40.76,17.371-64.176c0-70.692-57.308-128-128-128
			s-128,57.308-128,128s57.308,128,128,128c24.08,0,46.526-6.773,65.764-18.336l78.168,78.627
			c8.306,8.324,21.787,8.341,30.114,0.036l15.08-15.04C435.939,388.981,435.955,375.495,427.647,367.169z M238.485,320
			c-52.934,0-96-43.066-96-96s43.066-96,96-96s96,43.066,96,96S291.42,320,238.485,320z"/>
	</g>
</g>
<g>
	<g>
		<path d="M270.477,156.211l-31.998,18.467l-31.986-18.468l-40,23.086v46.18l32,18.482v36.941L238.477,304l40-23.102v-36.947
			l32-18.474v-46.18L270.477,156.211z M262.477,271.664l-24,13.851l-23.984-13.851v-27.708c14.726-8.509,9.257-5.35,23.984-13.854
			l24,13.851V271.664z M294.477,216.242l-24,13.859l-24-13.859v-27.711l24-13.851l24,13.851V216.242z"/>
	</g>
</g>
<g>
	<g>
		<path d="M91.579,145.478C163.197,76.066,190.485,52.817,190.485,16c0-8.836-7.156-16-16-16s-16,7.164-16,16
			c0,5.294-1.446,10.423-4.238,16H66.496c-2.81-5.61-4.01-10.678-4.01-16c0-8.836-7.156-16-16-16s-16,7.164-16,16
			c0,23.716,11.568,42.002,38.545,70.195c2.642,2.76,6.285,4.336,10.106,4.373s7.498-1.468,10.19-4.178l2.554-2.571
			c5.429-5.465,5.499-14.27,0.149-19.819h36.842c-5.45,5.658-13.247,13.46-18.398,18.518L87.489,104.87l-18.222,17.669
			c-37.25,36.234-54.61,68.578-54.61,101.774c0,39.252,24.873,72.158,54.661,102.34c6.357,6.441,16.713,6.587,23.106,0.182
			c6.288-6.301,6.282-16.558-0.035-22.829c-7.894-7.837-14.956-15.428-21.802-24.005c12.482,0,26.733,0,35.196,0
			c-4.273-10.112-7.266-20.866-9.138-32H51.539c-2.952-7.744-4.882-15.605-4.882-23.68c0-7.938,1.725-16.016,4.928-24.32h45.059
			c1.872-11.136,4.866-21.889,9.138-32c-11.05,0-22.749,0-34.91,0C76.696,160.77,83.541,153.294,91.579,145.478z"/>
	</g>
</g>
<g>
	<g>
		<path d="M151.165,360.395c-3.012-3.11-7.14-4.899-11.467-4.967c-4.328-0.068-8.512,1.588-11.62,4.601
			c-3.112,3.017-4.869,7.166-4.869,11.5c0,4.335,1.758,8.484,4.871,11.5l1.002,0.972H92.38c5.173-5.337,11.034-11.233,18.023-18.098
			l23.499-22.519c4.134-4.067,8.521-8.384,10.618-10.417c-8.102-6.993-15.367-14.89-21.743-23.508l-12.245,12.021l-23.499,22.526
			c-43.537,42.806-56.548,59.788-56.548,88.519c0,8.836,7.156,16,16,16s16-7.164,16-16c0-5.637,1.194-10.77,4.086-16.523h87.278
			c2.782,5.652,4.637,11.182,4.637,16.523c0,8.836,7.156,16,16,16s16-7.164,16-16C190.485,406.904,173.695,383.65,151.165,360.395z"
			/>
	</g>
</g>
<g>
</g>
<g>
</g>
<g>
</g>
<g>
</g>
<g>
</g>
<g>
</g>
<g>
</g>
<g>
</g>
<g>
</g>
<g>
</g>
<g>
</g>
<g>
</g>
<g>
</g>
<g>
</g>
<g>
</g>
</svg>
