<?xml version="1.0" encoding="iso-8859-1"?>
<!-- Generator: Adobe Illustrator 19.0.0, SVG Export Plug-In . SVG Version: 6.00 Build 0)  -->
<svg version="1.1" id="Capa_1" xmlns="http://www.w3.org/2000/svg" xmlns:xlink="http://www.w3.org/1999/xlink" x="0px" y="0px"
	 viewBox="0 0 458.496 458.496" style="enable-background:new 0 0 458.496 458.496;" xml:space="preserve">
<g>
	<g>
		<path d="M255.272,50.192c-7.168-8.368-14.96-12.944-23.12-12.944h-80v16h54.56c-20.304,26.512-35.152,83.6-38,152h126.896
			c-1.776-42.464-8.176-80.544-17.616-109.728L403.72,221.248H168.152v16h0.128c1.04,75.312,16.464,139.424,38.32,168h-54.448v16h80
			c7.488,0,14.656-4.064,21.328-11.152l180.864-180.848L255.272,50.192z M278.04,362.928c10.608-32.784,17.312-76.864,17.984-125.68
			H403.72L278.04,362.928z"/>
	</g>
</g>
<g>
	<g>
		<polygon points="90.904,184 79.576,195.312 105.528,221.248 24.152,221.248 24.152,237.248 105.528,237.248 79.576,263.184 
			90.904,274.496 136.152,229.248 		"/>
	</g>
</g>
<g>
	<g>
		<polygon points="90.904,368 79.576,379.312 105.528,405.248 24.152,405.248 24.152,421.248 105.528,421.248 79.576,447.184 
			90.904,458.496 136.152,413.248 		"/>
	</g>
</g>
<g>
	<g>
		<polygon points="90.904,0 79.576,11.312 105.528,37.248 24.152,37.248 24.152,53.248 105.528,53.248 79.576,79.184 90.904,90.496 
			136.152,45.248 		"/>
	</g>
</g>
<g>
</g>
<g>
</g>
<g>
</g>
<g>
</g>
<g>
</g>
<g>
</g>
<g>
</g>
<g>
</g>
<g>
</g>
<g>
</g>
<g>
</g>
<g>
</g>
<g>
</g>
<g>
</g>
<g>
</g>
</svg>
