<?xml version="1.0" encoding="iso-8859-1"?>
<!-- Generator: Adobe Illustrator 19.0.0, SVG Export Plug-In . SVG Version: 6.00 Build 0)  -->
<svg version="1.1" id="Capa_1" xmlns="http://www.w3.org/2000/svg" xmlns:xlink="http://www.w3.org/1999/xlink" x="0px" y="0px"
	 viewBox="0 0 458.594 458.594" style="enable-background:new 0 0 458.594 458.594;" xml:space="preserve">
<g>
	<g>
		<path d="M71.59,417.626L54.63,400.65l-16.976,16.976c-9.375,9.377-9.376,24.576,0.001,33.936c9.376,9.376,24.576,9.376,33.936,0
			C80.966,442.186,80.966,426.986,71.59,417.626z"/>
	</g>
</g>
<g>
	<g>
		<path d="M405.347,135.753l22.624-22.624L314.843,0l-22.624,22.607l22.626,22.626L280.909,79.17l-56.568-56.568l-22.64,22.64
			l33.936,33.936L88.565,226.25c4.528,13.952,13.088,28.848,24.287,43.584l-24.288,24.288l16.976,16.976l-50.912,50.928v22.623
			l62.224-62.224l16.976,16.976l24.288-24.288c14.753,11.201,29.631,19.776,43.584,24.289L348.773,192.33l33.936,33.936
			l22.624-22.624l-56.565-56.564l33.936-33.936L405.347,135.753z M190.39,305.45l-28.282-28.282l-22.636,22.637l-11.314-11.314
			l22.636-22.636l-28.293-28.293l135.76-135.76l67.888,67.888L190.39,305.45z M326.157,124.434l-22.624-22.624l33.936-33.936
			l22.624,22.624L326.157,124.434z"/>
	</g>
</g>
<g>
	<g>
		
			<rect x="153.697" y="194.261" transform="matrix(0.7071 -0.7071 0.7071 0.7071 -100.9145 208.8914)" width="95.999" height="63.999"/>
	</g>
</g>
<g>
</g>
<g>
</g>
<g>
</g>
<g>
</g>
<g>
</g>
<g>
</g>
<g>
</g>
<g>
</g>
<g>
</g>
<g>
</g>
<g>
</g>
<g>
</g>
<g>
</g>
<g>
</g>
<g>
</g>
</svg>
