<?xml version="1.0" encoding="iso-8859-1"?>
<!-- Generator: Adobe Illustrator 19.0.0, SVG Export Plug-In . SVG Version: 6.00 Build 0)  -->
<svg version="1.1" id="Capa_1" xmlns="http://www.w3.org/2000/svg" xmlns:xlink="http://www.w3.org/1999/xlink" x="0px" y="0px"
	 viewBox="0 0 448.524 448.524" style="enable-background:new 0 0 448.524 448.524;" xml:space="preserve">
<g>
	<g>
		<path d="M151.084,216.002h-30.822v16h30.89c0.517-2.672,0.766-5.205,0.766-7.68C151.918,221.626,151.642,218.865,151.084,216.002z
			"/>
	</g>
</g>
<g>
	<g>
		<path d="M351.363,104.069l-71.114,41.044l-71.089-41.044l-38.722,22.349c30.137,34.805,45.479,67.686,45.478,97.894
			c0.001,28.695-11.022,53.074-25.74,74.076l1.204,0.695v82.098l88.863,51.342l88.898-51.342v-82.114l71.119-41.058V155.377
			L351.363,104.069z M336.262,362.206l-56.018,32.331l-55.982-32.331v-64.673c34.371-19.86,21.606-12.486,55.982-32.338
			l56.018,32.331V362.206z M408.25,239.022l-56,32.339l-56-32.339v-64.659l56-32.32l56,32.32V239.022z"/>
	</g>
</g>
<g>
	<g>
		<path d="M135.491,358.048c-4.278-0.059-8.403,1.608-11.429,4.633l-1.275,1.276c-5.522,5.522-5.57,14.461-0.105,20.043
			l-36.628,0.001c5.142-5.255,11.07-11.15,18.035-17.974l22.946-22.326c28.567-27.708,72.883-66.699,72.882-119.388
			c0.001-36.938-27.386-73.323-52.937-99.948c-6.218-6.482-16.544-6.645-22.895-0.293c-6.121,6.121-6.295,16.054-0.262,22.261
			c4.661,4.795,14.99,15.597,19.879,21.669C120.167,168.002,92.478,168,64.64,168c12.181-14.999,26.876-28.66,39.423-40.82
			l22.964-22.335c39.934-39.2,57.063-59.88,57.063-88.845c-0.001-8.835-7.158-16-16-16c-8.845,0-16,7.165-16,16.001
			c0,5.293-1.36,10.402-4.166,16H60.172C57.367,26.401,56.09,21.314,56.09,16c0-8.835-7.156-15.999-16-16
			c-8.845,0-16,7.165-16,16.001c0,23.5,11.136,41.484,37.508,69.173c2.974,3.121,7.08,4.91,11.39,4.964
			c4.31,0.054,8.465-1.631,11.513-4.678l1.048-1.048c5.627-5.627,5.662-14.74,0.079-20.411h36.836
			c-5.328,5.53-11.25,11.51-18.39,18.519l-22.97,22.354c-28.461,27.575-72.842,66.61-72.842,119.439
			c0,34.788,20.827,65.808,46.626,93.722c2.926,3.167,7.016,5.003,11.326,5.089c4.31,0.086,8.478-1.582,11.526-4.631l0.245-0.245
			c6.047-6.047,6.202-15.783,0.359-22.027C73.32,290.85,68.59,285.446,64.253,280c18.705,0,56.738,0,79.725-0.001
			c-12.242,15.17-27.134,29.01-39.888,41.385l-22.946,22.317c-45.434,44.522-57.054,59.58-57.054,88.822
			c0,8.837,7.155,16.001,16,16.001c8.844-0.001,16-7.164,16-16c0-5.818,0.942-10.832,3.787-16.523L147.562,416
			c2.805,5.665,4.528,11.183,4.528,16.523c0,8.837,7.155,16.001,16,16.001c8.842,0,15.999-7.164,16-16
			c0-24.171-16.007-47.022-37.308-69.525C143.842,359.893,139.77,358.109,135.491,358.048z M45.022,248.001
			c-2.97-7.754-4.76-15.628-4.76-23.678c0-8.417,2.005-16.488,5.028-24.322c39.339,0,84.686,0,117.701,0.001
			c3.203,8.305,4.926,16.383,4.926,24.32c0,8.186-1.943,16.039-4.834,23.68L45.022,248.001z"/>
	</g>
</g>
<g>
</g>
<g>
</g>
<g>
</g>
<g>
</g>
<g>
</g>
<g>
</g>
<g>
</g>
<g>
</g>
<g>
</g>
<g>
</g>
<g>
</g>
<g>
</g>
<g>
</g>
<g>
</g>
<g>
</g>
</svg>
