<?xml version="1.0" encoding="iso-8859-1"?>
<!-- Generator: Adobe Illustrator 19.0.0, SVG Export Plug-In . SVG Version: 6.00 Build 0)  -->
<svg version="1.1" id="Capa_1" xmlns="http://www.w3.org/2000/svg" xmlns:xlink="http://www.w3.org/1999/xlink" x="0px" y="0px"
	 viewBox="0 0 415.86 415.86" style="enable-background:new 0 0 415.86 415.86;" xml:space="preserve">
<g>
	<g>
		<path d="M207.874,7.93c-0.005,0-0.01,0-0.01,0c-17.15,0-29.518,14.607-37.982,34.234c5.202,0.903,10.503,2.05,15.934,3.55
			c6.153-13.144,13.761-21.843,22.044-21.843c6.947,0.002,15.326,8.05,22.357,22.389c4.797-1.252,11.092-2.822,15.739-3.88
			C236.341,21.184,222.852,7.932,207.874,7.93z"/>
	</g>
</g>
<g>
	<g>
		<path d="M258.869,91.726c-1.146-9.262-2.806-18.028-4.968-26.196c5.322-0.854,10.499-1.446,15.229-1.446
			c11.811,0,19.406,2.786,22.578,8.297c3.475,6.019,0.294,17.504-8.205,30.209c3.899,3.791,7.672,7.715,11.205,11.814
			c13.541-18.89,18.306-37.12,10.857-50.022c-6.806-11.819-20.341-16.297-36.434-16.297c-18.981,0-41.458,6.251-60.749,13.995
			c-21.748-9.206-42.651-14.014-59.79-14.014c-18.169,0-32.125,5.314-38.437,16.239c-7.444,12.878-2.77,31.066,10.674,49.928
			c3.384-4.042,7.131-8.053,11.159-12.017c-8.332-12.586-11.432-23.934-7.978-29.908c2.982-5.16,12.171-8.242,24.582-8.242
			c4.243,0,8.822,0.45,13.54,1.127c-2.224,8.592-3.879,17.408-5.047,25.919c-38.692,29.289-59.2,64.82-46.97,86.017
			c6.81,11.81,20.341,16.286,36.43,16.286c4.017,0,8.224-0.363,12.491-0.877c-1.866-4.946-3.55-10.166-5.014-15.658
			c-2.528,0.225-5.117,0.534-7.477,0.534c-11.809,0-19.402-2.785-22.571-8.283c-3.973-6.884,0.322-20.706,12.734-36.55
			c6.014,6.014,12.753,11.915,20.246,17.61c6.223,47.123,26.598,81.739,50.836,81.739c0.009,0,0.018,0,0.018,0
			c18.841,0,31.898-17.624,40.349-40.181c6.675,1.112,13.031,1.682,18.935,1.682c18.168,0,32.121-5.313,38.428-16.236
			C320.511,151.293,289.521,115.585,258.869,91.726z M147.404,120.553c2.397-2.411,4.942-4.832,7.687-7.262
			c-0.087,2.289-0.134,4.508-0.136,6.622c-0.001,2.706,0.1,5.358,0.187,8.016C152.413,125.492,149.862,123.04,147.404,120.553z
			 M260.498,113.896c2.543,2.266,5.03,4.611,7.47,7.028c-2.39,2.399-4.859,4.766-7.502,7.117c0.127-2.775,0.256-5.562,0.257-8.093
			C260.724,117.889,260.55,115.929,260.498,113.896z M238.45,68.793c0.872,3.238,1.682,6.605,2.399,10.143
			c-2.248-1.43-4.442-2.764-6.549-3.982c-1.96-1.132-3.922-2.129-5.884-3.19C231.755,70.68,235.11,69.687,238.45,68.793z
			 M177.901,68.438c3.289,0.877,6.623,1.88,10.001,3.006c-2.248,1.173-4.503,2.349-6.491,3.496c-2.05,1.182-4.004,2.425-5.99,3.647
			C176.157,75.099,177.007,71.762,177.901,68.438z M175.293,162.718c2.046,1.265,3.977,2.594,6.092,3.815
			c1.914,1.106,3.832,2.08,5.749,3.12c-3.169,1.02-6.302,1.905-9.472,2.755C176.793,169.271,176.002,166.043,175.293,162.718z
			 M207.79,215.988c-7.274,0-16.07-9.071-22.958-23.675c-0.699-1.482-1.332-3.089-1.983-4.662c8.38-2.318,16.674-5.12,24.45-8.238
			c8.579,3.633,16.995,6.544,25.13,8.767C225.897,204.642,217.286,215.988,207.79,215.988z M291.665,169.196
			c-2.978,5.158-12.163,8.236-24.571,8.236c-21.838,0-50.886-9.253-77.703-24.751c-6.097-3.523-11.853-7.377-17.419-11.35
			c-0.694-6.999-1.078-14.17-1.074-21.412c0.002-6.565,0.505-13.32,1.218-20.077c5.338-3.762,11.088-7.465,17.29-11.043
			c5.505-3.176,11.894-6.35,18.73-9.329c6.093,2.799,12.182,5.886,18.158,9.338c5.071,2.93,11.18,6.92,17.627,11.652
			c0.544,6.199,0.862,12.682,0.86,19.482c-0.003,7.047-0.477,14.324-1.3,21.575c-5.505,3.912-11.194,7.706-17.214,11.178
			c-2.806,1.619-5.858,3.235-9.058,4.83c6.846,2.874,13.61,5.262,20.175,7.131c0.871-0.519,1.651-1.089,2.51-1.616
			c-0.16,0.729-0.28,1.488-0.447,2.211c5.398,1.455,10.594,2.508,15.57,3.2c1.36-6.026,2.378-12.046,3.242-17.983
			c7.597-5.742,14.466-11.691,20.557-17.762C285.557,140.978,297.88,158.458,291.665,169.196z"/>
	</g>
</g>
<g>
	<g>
		<circle cx="207.814" cy="119.93" r="16"/>
	</g>
</g>
<g>
	<g>
		<path d="M176,407.93l-0.07-90.258c0-43.59-22.328-69.147-51.902-78.772c-8.254-2.498-15.649-9.061-22.527-15.942
			c-12.496-13.014-25.855-30.813-43.16-30.592c-5.645,0.074-11.305,2.047-16.199,6.942c-11.477,11.477-6.84,29.012,3.058,38.91
			l32.152,32.149c3,3,4.687,7.07,4.687,11.313c0,4.244-1.687,8.313-4.687,11.314l-43.465-43.463
			c-7.554-7.553-12.687-17.764-14.086-28.012c-1.742-12.767,2.172-24.672,11.023-33.523c6.629-6.629,14.762-10.371,23.633-11.317
			l-6.492-26.221C47.473,53.151,0.004,65.04,0.004,87.93L0,258.758c0,10.61,4.11,20.61,11.578,28.156
			C91.062,367.135,80,341.291,80,407.93H176z"/>
	</g>
</g>
<g>
	<g>
		<path d="M415.856,87.93c0-22.89-47.469-34.779-47.961,62.53l-6.492,26.221c8.871,0.946,17.004,4.687,23.633,11.317
			c8.851,8.851,12.766,20.756,11.023,33.523c-1.398,10.248-6.531,20.459-14.086,28.012l-43.465,43.463
			c-3-3.002-4.687-7.07-4.687-11.314c0-4.242,1.687-8.313,4.687-11.313l32.152-32.149c9.898-9.898,14.535-27.434,3.058-38.91
			c-4.894-4.894-10.539-6.934-16.183-7.008c-17.305-0.221-30.68,17.645-43.176,30.658c-6.879,6.881-14.274,13.443-22.527,15.942
			c-29.574,9.625-51.902,35.182-51.902,78.771l-0.07,90.258h96c0-66.638-11.062-40.795,68.422-121.016
			c7.469-7.547,11.578-17.547,11.578-28.156L415.856,87.93z"/>
	</g>
</g>
<g>
</g>
<g>
</g>
<g>
</g>
<g>
</g>
<g>
</g>
<g>
</g>
<g>
</g>
<g>
</g>
<g>
</g>
<g>
</g>
<g>
</g>
<g>
</g>
<g>
</g>
<g>
</g>
<g>
</g>
</svg>
