<?xml version="1.0" encoding="iso-8859-1"?>
<!-- Generator: Adobe Illustrator 19.0.0, SVG Export Plug-In . SVG Version: 6.00 Build 0)  -->
<svg version="1.1" id="Capa_1" xmlns="http://www.w3.org/2000/svg" xmlns:xlink="http://www.w3.org/1999/xlink" x="0px" y="0px"
	 viewBox="0 0 480.001 480.001" style="enable-background:new 0 0 480.001 480.001;" xml:space="preserve">
<g>
	<g>
		<path d="M453.644,217.199c-4.703-2.484-8.014-2.55-12.652-2.55c-14.057,0-24.996-11.477-24.996-27.594V147.11
			c0-16.562,11.326-27.894,25.134-27.894c10.725,0,20.534-7.215,23.279-18.207c1.537-6.226,0.578-12.672-2.734-18.16
			c-4.375-7.266-12.703-11.41-21.008-11.41c-4.152,0-8.295,1.035-11.938,3.234c-3.676,2.215-6.512,5.274-8.45,8.774
			c-14.981,27.05-43.054,4.226-68.746-11.18c-14.282-8.566-18.076-24.246-10.942-36.066c2.152-3.566,3.402-7.726,3.402-12.199
			c0-13.234-10.77-24-24-24c-13.233,0-24,10.766-24,24c0,4.477,1.25,8.645,3.41,12.215c4.176,6.91,4.656,15.481,1.26,22.801
			c-2.446,5.278-6.369,9.746-12.207,13.25l-48.462,29.078l-48.465-29.078c-5.836-3.504-9.762-7.973-12.207-13.25
			c-8.183-17.649,4.672-19.687,4.672-35.016c0-13.234-10.77-24-24-24c-13.233,0-24,10.766-24,24
			c0,15.305,12.848,17.383,4.668,35.023c-2.446,5.27-6.371,9.742-12.207,13.242L96.508,91.43c0,0-0.03,0.019-0.043,0.027
			c-4.406,2.633-9.258,3.89-14.045,3.89c-9.17,0-18.119-4.606-23.31-12.957c-1.906-3.062-4.531-5.734-7.834-7.718
			c-3.642-2.203-7.787-3.242-11.935-3.242c-8.301,0-16.625,4.149-21.008,11.402c-3.328,5.488-4.289,11.95-2.754,18.176
			c1.553,6.207,5.426,11.453,10.914,14.766c3.742,2.258,8.016,3.442,12.367,3.442c8.114,0,15.66,4.043,20.176,10.785
			c3.187,4.766,4.961,10.367,4.961,17.11v39.969c0,15.18-9.324,27.543-26.988,27.543c-3.65,0-7.309,0.82-10.66,2.594
			c-11.695,6.191-16.176,20.738-10,32.434c4.176,7.886,12.305,12.782,21.23,12.782c3.889,0,7.746-0.961,11.201-2.782
			c3.963-2.094,7.065-5.16,9.213-8.746c7.274-12.141,22.992-15.645,36.974-7.258l49.03,29.41v58.023c0,4.957-1.054,9.77-3.27,14.183
			c-4.129,8.23-11.703,13.363-23.711,13.363c-3.66,0-7.32,0.82-10.668,2.59c-11.695,6.191-16.176,20.738-10,32.434
			c4.176,7.886,12.305,12.782,21.23,12.782c3.889,0,7.746-0.961,11.201-2.782c16-8.453,8.354-20.586,30.435-20.586
			c12.351,0,20.295,7.309,49.242,24.672c5.832,3.5,9.758,7.969,12.203,13.238c3.406,7.336,2.93,15.89-1.254,22.813
			c-2.16,3.57-3.41,7.734-3.41,12.215c0,13.23,10.767,24,24,24c13.23,0,24-10.77,24-24c0-4.481-1.254-8.645-3.41-12.215
			c-4.18-6.91-4.656-15.488-1.256-22.813c2.446-5.27,6.369-9.738,12.205-13.238l33.488-20.09
			c14.114-8.465,29.793-4.746,36.981,7.262c2.149,3.59,5.246,6.652,9.207,8.758c3.442,1.805,7.313,2.766,11.199,2.766
			c8.93,0,17.057-4.894,21.234-12.782c6.191-11.695,1.695-26.258-10-32.434c-4.705-2.496-8.012-2.55-12.656-2.55
			c-9.156,0-17.578-5.164-21.715-13.398c-2.218-4.414-3.278-9.234-3.278-14.195v-58.016l49.027-29.41
			c14.114-8.465,29.793-4.746,36.981,7.262c4.359,7.282,12.102,11.523,20.406,11.523c8.93,0,17.057-4.894,21.234-12.782
			C469.836,237.954,465.34,223.391,453.644,217.199z M288.563,360.203l-33.488,20.09c-5.801,3.481-10.84,7.621-15.078,12.394
			c-4.24-4.774-9.278-8.914-15.078-12.394l-33.49-20.09c-6.111-3.664-12.488-6.238-19.065-7.703
			c2.414-6.789,3.633-13.965,3.633-21.422v-58.023l64-38.398l64,38.398v58.016c0,7.461,1.218,14.637,3.634,21.43
			C301.055,353.962,294.676,356.539,288.563,360.203z M368.563,216.203L320,245.336l-64.004-38.41v-77.863l0.463-0.282
			l48.463-29.078c5.805-3.481,10.844-7.625,15.082-12.398c4.242,4.782,9.275,8.926,15.074,12.402l31.965,19.168
			c6.35,3.813,13.11,6.453,20.164,7.883c-2.137,6.394-3.211,13.195-3.211,20.351v39.946c0,7.465,1.221,14.649,3.638,21.446
			C381.055,209.962,374.676,212.535,368.563,216.203z"/>
	</g>
</g>
<g>
</g>
<g>
</g>
<g>
</g>
<g>
</g>
<g>
</g>
<g>
</g>
<g>
</g>
<g>
</g>
<g>
</g>
<g>
</g>
<g>
</g>
<g>
</g>
<g>
</g>
<g>
</g>
<g>
</g>
</svg>
