<?xml version="1.0" encoding="iso-8859-1"?>
<!-- Generator: Adobe Illustrator 19.0.0, SVG Export Plug-In . SVG Version: 6.00 Build 0)  -->
<svg version="1.1" id="Capa_1" xmlns="http://www.w3.org/2000/svg" xmlns:xlink="http://www.w3.org/1999/xlink" x="0px" y="0px"
	 viewBox="0 0 464 464" style="enable-background:new 0 0 464 464;" xml:space="preserve">
<g>
	<g>
		<path d="M406.769,165.542c-11.536,6.459-24.633,10.459-38.769,10.459c-39.753,0-72.563-29.226-78.713-67.27h-37.482
			c-14.571,0-27.682,11.982-27.805,26.523v18.32c0,0.69,1.293,1.851,2.061,1.855c1.886,0.002,2.282-0.797,3.106-1.621
			c3.795-3.793,9.498-4.928,14.453-2.875c4.954,2.054,8.185,6.89,8.185,12.254V170c0,8.625-4.012,16.73-10.721,22.152
			c-9.211,7.447-14.35,16.125-3.545,35.646c0.579,1.049,1.005,2.19,1.005,3.473c0,4.016-3.256,7.271-7.273,7.271
			c-2.647,0-4.899-1.465-6.136-3.603C220.55,227.007,214.451,224,209.518,224h-37.279c-7.324,0-13.262,5.938-13.262,13.262v15.715
			h6.404c3.787,0,6.857,3.072,6.857,6.858v7.797H185.5h51.545c14.236,0,27.478,9.554,30.074,23.553
			c1.526,8.24-0.448,16.035-4.676,22.117c-2.562,3.844-4.566,10.317-4.437,14.676c0.314,10.457-2.29,20.638-8.298,28.912
			l0.302,0.022l-14.1,20.398c-2.605,3.928-6.846,6.672-11.91,6.672c-8.032,0-14.544-6.512-14.544-14.543c0,0,0.01-0.031,0.01-0.049
			c0-12.922-0.384-19.358-5.01-27.912l-24.086-44.699V282.07c-19.226-8.442-34.156-24.926-40.419-45.191
			c-4.593-14.859-14.66-18.992-27.006-28.453c-4.406-3.375-8.22-6.783-10.12-9.634c-6.336-9.502-9.718-20.67-9.718-32.092v-34.394
			C122.074,91.083,169.899,64.021,224,64.021c23.592,0,45.888,5.324,66.035,14.568c2.394-10.713,6.979-20.545,13.203-29.17
			C279.026,38.34,252.244,32,224,32C118.4,32,32,118.398,32,224c0,105.6,86.4,192,192,192s192-86.4,192-192
			C416,203.629,412.717,184.002,406.769,165.542z M365.038,299.379c-0.406,0.742-0.825,1.47-1.24,2.207
			c-1.675,3.006-3.495,5.918-5.354,8.802c-1.098,1.68-2.173,3.377-3.331,5.014c-0.242,0.344-0.512,0.668-0.756,1.008l-0.742-0.977
			c-5.829-7.701-8.983-17.096-8.983-26.754c0-0.142,0-0.282-0.001-0.416c-0.013-3.482-2.398-6.508-5.776-7.342
			c-15.828-3.914-27.592-18.066-27.592-35.106c0-20.082,16.278-36.359,36.359-36.359h35.622c0.434,4.797,0.736,9.633,0.736,14.543
			C383.981,251.244,377.1,276.898,365.038,299.379z"/>
	</g>
</g>
<g>
	<g>
		<path d="M32,0c0,18.385-13.614,32-32,32c18.386,0,32,13.614,32,32c0-18.386,13.614-32,32-32C45.614,32,32,18.385,32,0z"/>
	</g>
</g>
<g>
	<g>
		<path d="M416,368c0,27.578-20.422,48-48,48c27.578,0,48,20.422,48,48c0-27.578,20.422-48,48-48C436.422,416,416,395.578,416,368z"
			/>
	</g>
</g>
<g>
	<g>
		<path d="M368,32c-35.346,0-64,28.654-64,64s28.654,64,64,64c35.346,0,64-28.654,64-64S403.346,32,368,32z M336,80
			c0-8.824,7.175-16,16-16c8.825,0,16,7.176,16,16c0,8.824-7.175,16-16,16C343.175,96,336,88.824,336,80z M360.239,144
			c-4.419,0-8-3.582-8-8s3.581-8,8-8c4.418,0,8,3.582,8,8S364.657,144,360.239,144z M392,112c-4.418,0-8-3.582-8-8s3.582-8,8-8
			s8,3.582,8,8S396.418,112,392,112z"/>
	</g>
</g>
<g>
</g>
<g>
</g>
<g>
</g>
<g>
</g>
<g>
</g>
<g>
</g>
<g>
</g>
<g>
</g>
<g>
</g>
<g>
</g>
<g>
</g>
<g>
</g>
<g>
</g>
<g>
</g>
<g>
</g>
</svg>
