<?xml version="1.0" encoding="iso-8859-1"?>
<!-- Generator: Adobe Illustrator 19.0.0, SVG Export Plug-In . SVG Version: 6.00 Build 0)  -->
<svg version="1.1" id="Capa_1" xmlns="http://www.w3.org/2000/svg" xmlns:xlink="http://www.w3.org/1999/xlink" x="0px" y="0px"
	 viewBox="0 0 400 400" style="enable-background:new 0 0 400 400;" xml:space="preserve">
<g>
	<g>
		<path d="M400,224.216c0-13.202-10.8-24-24-24H224v-8h136.336c13.2,0,24-10.799,24-24s-10.8-24-24-24h-66.738
			c-13.226,14.678-32.187,24.08-53.502,24.08c-21.314,0-40.274-9.402-53.501-24.08h-52.229l20.528-20.512
			c21.521-21.522,23.408-64.783,8.928-79.248c-4.863-4.863-11.84-6.594-16.384-2.031l-108,105.886
			C15.248,170.617,0,202.472,0,237.976c0,64.61,55.439,117.969,118.96,122.256h209.36c13.2,0,24-10.799,24-24s-10.8-24-24-24H224
			v-7.807h136.32c13.2,0,24-10.801,24-24c0-13.201-10.8-24-24-24H224v-8.194h152v0.001C389.2,248.232,400,237.418,400,224.216z"/>
	</g>
</g>
<g>
	<g>
		<path d="M256.982,79.062c-0.392-0.355-9.274-9.242-16.982-16.961l-16.959,16.961c-9.373,9.371-9.372,24.568,0,33.942
			c9.372,9.371,24.569,9.371,33.941,0C266.354,103.63,266.81,87.956,256.982,79.062z"/>
	</g>
</g>
<g>
</g>
<g>
</g>
<g>
</g>
<g>
</g>
<g>
</g>
<g>
</g>
<g>
</g>
<g>
</g>
<g>
</g>
<g>
</g>
<g>
</g>
<g>
</g>
<g>
</g>
<g>
</g>
<g>
</g>
</svg>
