<?xml version="1.0" encoding="iso-8859-1"?>
<!-- Generator: Adobe Illustrator 19.0.0, SVG Export Plug-In . SVG Version: 6.00 Build 0)  -->
<svg version="1.1" id="Capa_1" xmlns="http://www.w3.org/2000/svg" xmlns:xlink="http://www.w3.org/1999/xlink" x="0px" y="0px"
	 viewBox="0 0 447.997 447.997" style="enable-background:new 0 0 447.997 447.997;" xml:space="preserve">
<g>
	<g>
		<path d="M287.998,123.149V79.997h32v-32h-192v32h32v43.152c-74.528,26.384-128,97.28-128,180.848
			c0,57.424,25.344,108.816,65.296,144h253.408c39.952-35.184,65.296-86.576,65.296-144
			C415.998,220.429,362.526,149.533,287.998,123.149z M337.982,415.997H110.014c-29.376-29.872-46.016-70.08-46.016-112
			c0-67.536,42.864-128.08,106.672-150.672l21.328-7.552V79.997h64v65.776l21.328,7.552
			c63.808,22.592,106.672,83.136,106.672,150.672C383.998,345.917,367.358,386.125,337.982,415.997z"/>
	</g>
</g>
<g>
	<g>
		<rect x="160.03" width="128" height="32"/>
	</g>
</g>
<g>
	<g>
		<path d="M359.63,255.997H88.366c-5.328,15.04-8.368,31.136-8.368,48c0,36.928,14.016,70.512,36.88,96h214.224
			c22.88-25.488,36.896-59.072,36.896-96C367.998,287.133,364.958,271.037,359.63,255.997z"/>
	</g>
</g>
<g>
</g>
<g>
</g>
<g>
</g>
<g>
</g>
<g>
</g>
<g>
</g>
<g>
</g>
<g>
</g>
<g>
</g>
<g>
</g>
<g>
</g>
<g>
</g>
<g>
</g>
<g>
</g>
<g>
</g>
</svg>
