<?xml version="1.0" encoding="iso-8859-1"?>
<!-- Generator: Adobe Illustrator 19.0.0, SVG Export Plug-In . SVG Version: 6.00 Build 0)  -->
<svg version="1.1" id="Capa_1" xmlns="http://www.w3.org/2000/svg" xmlns:xlink="http://www.w3.org/1999/xlink" x="0px" y="0px"
	 viewBox="0 0 448 448" style="enable-background:new 0 0 448 448;" xml:space="preserve">
<g>
	<g>
		<rect x="159.999" width="128" height="63.584"/>
	</g>
</g>
<g>
	<g>
		<path d="M332.896,151.2L288,128.048V80h-32v67.568l62.352,32.128C329.248,185.248,336,196.096,336,208v208H112V208
			c0-11.904,6.768-22.752,17.76-28.368L192,147.568V80h-32v48.048L115.104,151.2C94.352,161.776,80,183.104,80,208v208
			c0,17.68,14.32,32,32,32h224c17.68,0,32-14.32,32-32V208C368,183.104,353.648,161.776,332.896,151.2z"/>
	</g>
</g>
<g>
	<g>
		<rect x="127.999" y="224.56" width="192" height="175.472"/>
	</g>
</g>
<g>
</g>
<g>
</g>
<g>
</g>
<g>
</g>
<g>
</g>
<g>
</g>
<g>
</g>
<g>
</g>
<g>
</g>
<g>
</g>
<g>
</g>
<g>
</g>
<g>
</g>
<g>
</g>
<g>
</g>
</svg>
