<?xml version="1.0" encoding="iso-8859-1"?>
<!-- Generator: Adobe Illustrator 19.0.0, SVG Export Plug-In . SVG Version: 6.00 Build 0)  -->
<svg version="1.1" id="Capa_1" xmlns="http://www.w3.org/2000/svg" xmlns:xlink="http://www.w3.org/1999/xlink" x="0px" y="0px"
	 viewBox="0 0 448 448" style="enable-background:new 0 0 448 448;" xml:space="preserve">
<g>
	<g>
		<path d="M441.081,376.942l-137.082-250.27V32h32V0h-224v32h32v94.672L6.92,376.942C-10.599,408.93,12.545,448,49.018,448h349.961
			C435.451,448,458.6,408.93,441.081,376.942z M412.745,408.157c-1.394,2.359-5.535,7.844-13.766,7.844H49.018
			c-8.226,0-12.367-5.484-13.766-7.844c-1.394-2.359-4.218-8.625-0.266-15.84c90.282-164.832,127.457-232.707,141.012-257.453
			c0-58.402,0-76.55,0-102.863h96c0,26.355,0,44.383,0,102.863c11.82,21.578,92.137,168.215,141.016,257.453
			C416.967,399.531,414.143,405.797,412.745,408.157z"/>
	</g>
</g>
<g>
	<g>
		<path d="M320.107,256H127.893L49.018,400h349.961L320.107,256z M135.998,368c-13.254,0-24-10.746-24-24s10.746-24,24-24
			c13.258,0,24,10.746,24,24S149.256,368,135.998,368z M215.998,336c-13.254,0-24-10.746-24-24s10.746-24,24-24
			c13.258,0,24,10.746,24,24S229.256,336,215.998,336z M311.998,368c-13.254,0-24-10.746-24-24s10.746-24,24-24
			c13.258,0,24,10.746,24,24S325.256,368,311.998,368z"/>
	</g>
</g>
<g>
</g>
<g>
</g>
<g>
</g>
<g>
</g>
<g>
</g>
<g>
</g>
<g>
</g>
<g>
</g>
<g>
</g>
<g>
</g>
<g>
</g>
<g>
</g>
<g>
</g>
<g>
</g>
<g>
</g>
</svg>
