<?xml version="1.0" encoding="iso-8859-1"?>
<!-- Generator: Adobe Illustrator 19.0.0, SVG Export Plug-In . SVG Version: 6.00 Build 0)  -->
<svg version="1.1" id="Capa_1" xmlns="http://www.w3.org/2000/svg" xmlns:xlink="http://www.w3.org/1999/xlink" x="0px" y="0px"
	 viewBox="0 0 448 448" style="enable-background:new 0 0 448 448;" xml:space="preserve">
<g>
	<g>
		<path d="M351.616,96l17.28-32.096C386.08,63.408,400,49.296,400,32c0-17.6-14.4-32-32-32c-17.6,0-32,14.4-32,32
			c0,6.096,1.824,11.76,4.816,16.624L315.248,96H32v32h32v272c0,26.512,21.488,48,48,48h224c26.512,0,48-21.488,48-48V128h32V96
			H351.616z M352,416H96V128h256V416z"/>
	</g>
</g>
<g>
	<g>
		<path d="M112,256v144h224V256H112z M288,352H160v-16h128V352z M288,304H160v-16h128V304z"/>
	</g>
</g>
<g>
	<g>
		<rect x="159.992" y="159.989" width="128" height="16"/>
	</g>
</g>
<g>
	<g>
		<rect x="159.992" y="207.989" width="128" height="16"/>
	</g>
</g>
<g>
</g>
<g>
</g>
<g>
</g>
<g>
</g>
<g>
</g>
<g>
</g>
<g>
</g>
<g>
</g>
<g>
</g>
<g>
</g>
<g>
</g>
<g>
</g>
<g>
</g>
<g>
</g>
<g>
</g>
</svg>
