<?xml version="1.0" encoding="iso-8859-1"?>
<!-- Generator: Adobe Illustrator 19.0.0, SVG Export Plug-In . SVG Version: 6.00 Build 0)  -->
<svg version="1.1" id="Capa_1" xmlns="http://www.w3.org/2000/svg" xmlns:xlink="http://www.w3.org/1999/xlink" x="0px" y="0px"
	 viewBox="0 0 495.998 495.998" style="enable-background:new 0 0 495.998 495.998;" xml:space="preserve">
<g>
	<g>
		<rect x="431.998" y="56.002" width="64" height="32"/>
	</g>
</g>
<g>
	<g>
		<rect x="431.998" y="104.002" width="64" height="32"/>
	</g>
</g>
<g>
	<g>
		<rect x="335.998" y="152.002" width="160" height="32"/>
	</g>
</g>
<g>
	<g>
		<rect x="335.998" y="56.002" width="80" height="80"/>
	</g>
</g>
<g>
	<g>
		<path d="M64,407.999c0,6.023,0,12.17,0,18.939c-18.602,6.612-32,24.191-32,45.061v16h112v-80H64z"/>
	</g>
</g>
<g>
	<g>
		<rect x="127.998" y="248.002" width="64" height="16"/>
	</g>
</g>
<g>
	<g>
		<rect x="127.998" y="280.002" width="64" height="16"/>
	</g>
</g>
<g>
	<g>
		<path d="M215.137,71.999c0,0-23.137,0-23.137,0l-64,64h87.141c5.817-9.832,8.859-20.761,8.859-32
			C224,92.758,220.957,81.83,215.137,71.999z"/>
	</g>
</g>
<g>
	<g>
		<path d="M320,279.999v-224c0-8.837-7.164-16-16-16s-16,7.163-16,16v136.877c-4.965-2.89-10.305-5.138-16-6.614v-2.262
			c0-16.689-12.82-30.234-29.125-31.71c8.293-14.198,13.125-30.662,13.125-48.29c0-53.019-42.981-96-96-96
			c-53.019,0-96,42.981-96,96c0,17.628,4.832,34.093,13.125,48.29C60.82,153.765,48,167.311,48,183.999v2.262
			c-27.554,7.138-48,31.95-48,61.738v48h64v16H0v21.439c0,23.506,19.054,42.561,42.558,42.561H64c0,5.608,0,10.844,0,16h80v-16h32
			c0,5.501,0,10.806,0,16h80v-80.307c0,16.242,12.191,29.496,27.894,31.478c-6.797-1.848-11.894-7.791-11.894-15.171v-32
			c0-8.837,7.164-16,16-16s16,7.163,16,16c0,8.836-7.164,16-16,16v160c0-20.869-13.398-38.448-32-45.061v-18.939h-80
			c0,26.893,0,51.283,0,80h144v-144c8.672,0,15.703-7.03,15.703-15.701v-32.598C335.703,287.028,328.672,279.999,320,279.999z
			 M128,343.999c-4.418,0-8-3.582-8-8c0-4.419,3.582-8,8-8s8,3.581,8,8C136,340.417,132.418,343.999,128,343.999z M160,343.999
			c-4.418,0-8-3.582-8-8c0-4.419,3.582-8,8-8s8,3.581,8,8C168,340.417,164.418,343.999,160,343.999z M192,343.999
			c-4.418,0-8-3.582-8-8c0-4.419,3.582-8,8-8s8,3.581,8,8C200,340.417,196.418,343.999,192,343.999z M208,311.999h-96V232h96
			V311.999z M112.438,167.999h95.125c-13.328,9.922-29.672,16-47.562,16C142.11,183.999,125.766,177.921,112.438,167.999z
			 M223.649,151.983l-127.285,0.016c-10-13.227-16.363-31.087-16.363-48c0-18.094,6.234-34.598,16.363-48h127.274
			c10.129,13.402,16.363,29.906,16.363,48C240,121.13,233.531,138.906,223.649,151.983z"/>
	</g>
</g>
<g>
</g>
<g>
</g>
<g>
</g>
<g>
</g>
<g>
</g>
<g>
</g>
<g>
</g>
<g>
</g>
<g>
</g>
<g>
</g>
<g>
</g>
<g>
</g>
<g>
</g>
<g>
</g>
<g>
</g>
</svg>
